<?xml version="1.0" encoding="UTF-8"?>
<!-- Created with Inkscape (http://www.inkscape.org/) -->
<svg width="68.386mm" height="16.952mm" version="1.1" viewBox="0 0 68.386 16.952" xmlns="http://www.w3.org/2000/svg" xmlns:cc="http://creativecommons.org/ns#" xmlns:dc="http://purl.org/dc/elements/1.1/" xmlns:rdf="http://www.w3.org/1999/02/22-rdf-syntax-ns#">
 <metadata>
  <rdf:RDF>
   <cc:Work rdf:about="">
    <dc:format>image/svg+xml</dc:format>
    <dc:type rdf:resource="http://purl.org/dc/dcmitype/StillImage"/>
    <dc:title/>
   </cc:Work>
  </rdf:RDF>
 </metadata>
 <g transform="translate(-6.4087 -7.8237)" fill="#e42916" stroke-width=".0084751">
  <path d="m6.4087 19.782c0-3.3222 0.0028-4.9919 0.0085-4.9919 0.0047 0 0.0085 4e-3 0.0085 9e-3 0 6e-3 0.99917 8e-3 3.0744 6e-3l3.0744-2e-3 0.0822-0.0189c0.36699-0.0846 0.65313-0.30311 0.81509-0.62242 0.08755-0.1726 0.12612-0.33341 0.1266-0.5278 0.0014-0.56511-0.37278-1.0272-0.93914-1.1598l-0.07628-0.0179-3.0786-2e-3c-2.1844-2e-3 -3.0786 2.7e-4 -3.0786 7e-3 0 5e-3 -0.0038 7e-3 -0.0085 4e-3 -0.0056-3e-3 -0.0085-0.78687-0.0085-2.3227v-2.3174l3.0532 1e-3c2.6672 1e-3 3.47 5e-3 3.2523 0.0156-0.04257 2e-3 -0.0291 4e-3 0.05933 0.01 1.3039 0.0794 2.5421 0.59691 3.5172 1.4702 0.12863 0.1152 0.39988 0.39031 0.50486 0.51204 0.7271 0.84315 1.1919 1.8522 1.3547 2.9409 0.19249 1.2871-0.0553 2.6044-0.70194 3.7321-0.60871 1.0616-1.5437 1.9081-2.6577 2.4063-0.6076 0.27171-1.186 0.41914-1.9239 0.49038-0.06063 6e-3 -0.41933 0.0109-0.94912 0.0132-0.57503 3e-3 -0.85513 7e-3 -0.86235 0.0126-0.01375 0.0114-0.01595 5.3292-2e-3 5.3292 0.0047 0 0.0085 4e-3 0.0085 8e-3 0 6e-3 -0.78113 8e-3 -2.3264 8e-3h-2.3264z"/>
  <path d="m24.248 24.768c-5.5e-4 -4e-3 -8.5e-4 -9e-3 -2.6e-4 -0.0115 2.6e-4 -3e-3 -1.1222-1.2023-2.4944-2.6654l-2.495-2.6603-5.5e-4 -2.3115-5.6e-4 -2.3115 3.1634-3e-3c2.922-2e-3 3.1686-4e-3 3.2318-0.0168 0.23607-0.049 0.43431-0.15225 0.60177-0.31329 0.14128-0.13586 0.2422-0.29644 0.30428-0.48417 0.0391-0.11823 0.0552-0.22381 0.0552-0.36137 0-0.24162-0.0622-0.45062-0.19299-0.64841-0.1729-0.26148-0.4238-0.43167-0.74606-0.50607l-0.0822-0.019-6.3352-4e-3v-2.3051c0-1.5311-3e-3 -2.3051-8e-3 -2.3051s-8e-3 -4e-3 -8e-3 -8e-3c0-6e-3 1.0389-8e-3 3.0998-8e-3 2.8414 2e-5 3.5486 4e-3 3.3922 0.0176l-0.0551 5e-3 0.0593 2e-3c0.1001 3e-3 0.34796 0.0264 0.5085 0.0489 2.332 0.32664 4.2359 2.0383 4.8091 4.3233 0.25018 0.99735 0.23031 2.037-0.058 3.0335-0.20521 0.70937-0.57216 1.4144-1.0381 1.9946-0.18592 0.23151-0.47661 0.53617-0.68945 0.72257-0.98972 0.86678-2.2108 1.3657-3.518 1.4376-0.0762 4e-3 -0.14253 0.0116-0.14746 0.0166-6e-3 6e-3 -5e-3 0.0148 4e-3 0.0285 0.023 0.034 4.9547 5.2906 4.9727 5.3004 9e-3 5e-3 0.0197 0.0118 0.0227 0.0148s-1.4253 5e-3 -3.1741 5e-3 -3.18-3e-3 -3.1806-6e-3z"/>
  <path d="m40.72 19.9c0.39387-0.0293 0.80477-0.13405 1.1823-0.30148 1.1443-0.50751 1.9502-1.5914 2.1103-2.838 0.099-0.77107-0.0558-1.5655-0.43587-2.2374-0.5548-0.98081-1.5304-1.6454-2.6491-1.8046-0.32575-0.0464-0.74752-0.0416-1.0763 0.0123-1.5114 0.24729-2.7024 1.4132-2.978 2.9153-0.045 0.24552-0.0518 0.33062-0.0518 0.65259s7e-3 0.40707 0.0518 0.65259c0.22452 1.2238 1.0685 2.251 2.2237 2.7061 0.52701 0.20765 1.0473 0.28544 1.623 0.24266zm-0.55088 4.866c-0.10808-4e-3 -0.13279-6e-3 -0.0847-9e-3 0.0562-3e-3 0.0447-4e-3 -0.0678-0.01-0.78149-0.0382-1.5679-0.18861-2.3168-0.44327-1.6392-0.55741-3.0738-1.612-4.0998-3.0139-0.8872-1.2122-1.4384-2.6509-1.5877-4.1443-0.0316-0.31564-0.0383-0.46548-0.0383-0.84752 0-0.47507 0.0196-0.76454 0.0808-1.195 0.35832-2.5195 1.8362-4.7459 4.0209-6.0572 1.1865-0.71221 2.5733-1.1346 3.924-1.1953 0.11942-5e-3 0.1332-7e-3 0.0805-0.0107-0.11417-8e-3 0.40502-0.0158 0.58902-9e-3 0.10606 4e-3 0.15058 7e-3 0.11017 9e-3 -0.0549 2e-3 -0.0421 4e-3 0.0678 0.01 1.7366 0.0881 3.4044 0.7065 4.7696 1.7685 0.4833 0.37599 0.97056 0.84999 1.3474 1.3108 1.4453 1.7672 2.1162 4.0121 1.8743 6.2721-0.10762 1.0056-0.40181 2.0035-0.85574 2.9027-1.0074 1.9956-2.7604 3.5125-4.8727 4.2165-0.73417 0.24467-1.5281 0.39433-2.2586 0.42574-0.13062 6e-3 -0.14022 7e-3 -0.0805 0.0112l0.0678 5e-3 -0.089 2e-3c-0.049 7.9e-4 -0.16527 3e-3 -0.25849 5e-3 -0.0932 2e-3 -0.23816 5.2e-4 -0.32206-2e-3z"/>
  <path d="m49.073 24.766c0-5e-3 4e-3 -8e-3 8e-3 -8e-3 6e-3 0 8e-3 -0.87153 8e-3 -2.5976v-2.5976l0.0742-1.6e-4c0.13338-2.6e-4 0.59647-0.0163 0.73946-0.0256 1.0103-0.0656 1.7217-0.25472 2.0141-0.53551 0.26867-0.25799 0.42486-0.8603 0.49512-1.9093 5e-3 -0.0746 0.0108-0.33583 0.0129-0.58055 2e-3 -0.24472 8e-3 -0.87781 0.0122-1.4069 9e-3 -1.0955 0.0193-1.4464 0.0553-1.9662 0.0738-1.0678 0.23895-1.8445 0.53788-2.5298 0.44079-1.0106 1.2183-1.7859 2.2119-2.2055 0.68757-0.29042 1.4507-0.43855 2.5637-0.49765 0.48923-0.026 0.7557-0.0312 1.8328-0.036l1.0954-5e-3v5.1948l-0.27511 6e-3c-1.191 0.0243-2.0034 0.16321-2.4571 0.4201-0.18203 0.10307-0.26836 0.22028-0.36226 0.49187-0.0995 0.28768-0.17071 0.69985-0.21099 1.2209-0.0223 0.28844-0.0257 0.43663-0.0334 1.4959-0.0147 1.9962-0.0317 2.5326-0.10267 3.2375-0.13798 1.3703-0.49479 2.3458-1.147 3.1358-0.10101 0.12235-0.38328 0.40618-0.50081 0.50358-0.42112 0.34893-0.87317 0.59865-1.4208 0.78486-0.77015 0.26186-1.7672 0.38281-3.2617 0.39568l-0.22459 2e-3 0.18645 5e-3c0.11656 3e-3 -0.0912 7e-3 -0.55441 0.0108-1.0113 9e-3 -1.2974 8e-3 -1.2974-2e-3z"/>
  <path d="m58.456 24.763c0.0172-0.0132 5.7208-16.909 5.714-16.927-4e-3 -0.0109 0.29266-0.0125 2.4548-0.0125 2.1977 0 2.4591 1e-3 2.4546 0.0129-6e-3 0.0147 5.6954 16.915 5.7075 16.919 4e-3 2e-3 8e-3 6e-3 8e-3 0.0106 0 0.0104-4.8875 0.0104-4.8939 0-3e-3 -4e-3 -3e-3 -9e-3 3e-3 -0.0106 9e-3 -3e-3 -3.253-9.6719-3.2684-9.6871-8e-3 -8e-3 -0.013-8e-3 -0.0226 2e-3 -0.0147 0.0153-3.2709 9.6583-3.2701 9.6846v0.0191l-2.4506-2.6e-4c-1.9647-2.1e-4 -2.4478-2e-3 -2.4366-0.0109z"/>
 </g>
</svg>
